<?xml version="1.0" encoding="UTF-8" standalone="no"?><svg xmlns="http://www.w3.org/2000/svg" xmlns:xlink="http://www.w3.org/1999/xlink" contentScriptType="application/ecmascript" contentStyleType="text/css" height="296px" preserveAspectRatio="none" style="width:396px;height:296px;" version="1.1" viewBox="0 0 396 296" width="396px" zoomAndPan="magnify"><defs><filter height="300%" id="f1lexi3f1ngn0" width="300%" x="-1" y="-1"><feGaussianBlur result="blurOut" stdDeviation="2.0"/><feColorMatrix in="blurOut" result="blurOut2" type="matrix" values="0 0 0 0 0 0 0 0 0 0 0 0 0 0 0 0 0 0 .4 0"/><feOffset dx="4.0" dy="4.0" in="blurOut2" result="blurOut3"/><feBlend in="SourceGraphic" in2="blurOut3" mode="normal"/></filter></defs><g><!--MD5=[ca66430013dec83b1dbf950cee73fbca]
class ClassA--><rect fill="#FEFECE" filter="url(#f1lexi3f1ngn0)" height="48" id="ClassA" style="stroke: #A80036; stroke-width: 1.5;" width="73" x="153" y="8"/><ellipse cx="168" cy="24" fill="#ADD1B2" rx="11" ry="11" style="stroke: #A80036; stroke-width: 1.0;"/><path d="M170.9688,29.6406 Q170.3906,29.9375 169.75,30.0781 Q169.1094,30.2344 168.4063,30.2344 Q165.9063,30.2344 164.5781,28.5938 Q163.2656,26.9375 163.2656,23.8125 Q163.2656,20.6875 164.5781,19.0313 Q165.9063,17.375 168.4063,17.375 Q169.1094,17.375 169.75,17.5313 Q170.4063,17.6875 170.9688,17.9844 L170.9688,20.7031 Q170.3438,20.125 169.75,19.8594 Q169.1563,19.5781 168.5313,19.5781 Q167.1875,19.5781 166.5,20.6563 Q165.8125,21.7188 165.8125,23.8125 Q165.8125,25.9063 166.5,26.9844 Q167.1875,28.0469 168.5313,28.0469 Q169.1563,28.0469 169.75,27.7813 Q170.3438,27.5 170.9688,26.9219 L170.9688,29.6406 Z "/><text fill="#000000" font-family="sans-serif" font-size="12" lengthAdjust="spacingAndGlyphs" textLength="41" x="182" y="28.1543">ClassA</text><line style="stroke: #A80036; stroke-width: 1.5;" x1="154" x2="225" y1="40" y2="40"/><line style="stroke: #A80036; stroke-width: 1.5;" x1="154" x2="225" y1="48" y2="48"/><!--MD5=[f64054642b4cfbd30c6933927ef3d140]
class Type1--><rect fill="#FEFECE" filter="url(#f1lexi3f1ngn0)" height="60.8047" id="Type1" style="stroke: #A80036; stroke-width: 1.5;" width="161" x="6" y="116"/><ellipse cx="63.75" cy="132" fill="#ADD1B2" rx="11" ry="11" style="stroke: #A80036; stroke-width: 1.0;"/><path d="M66.7188,137.6406 Q66.1406,137.9375 65.5,138.0781 Q64.8594,138.2344 64.1563,138.2344 Q61.6563,138.2344 60.3281,136.5938 Q59.0156,134.9375 59.0156,131.8125 Q59.0156,128.6875 60.3281,127.0313 Q61.6563,125.375 64.1563,125.375 Q64.8594,125.375 65.5,125.5313 Q66.1563,125.6875 66.7188,125.9844 L66.7188,128.7031 Q66.0938,128.125 65.5,127.8594 Q64.9063,127.5781 64.2813,127.5781 Q62.9375,127.5781 62.25,128.6563 Q61.5625,129.7188 61.5625,131.8125 Q61.5625,133.9063 62.25,134.9844 Q62.9375,136.0469 64.2813,136.0469 Q64.9063,136.0469 65.5,135.7813 Q66.0938,135.5 66.7188,134.9219 L66.7188,137.6406 Z "/><text fill="#000000" font-family="sans-serif" font-size="12" lengthAdjust="spacingAndGlyphs" textLength="37" x="84.25" y="136.1543">Type1</text><line style="stroke: #A80036; stroke-width: 1.5;" x1="7" x2="166" y1="148" y2="148"/><ellipse cx="17" cy="159" fill="none" rx="3" ry="3" style="stroke: #038048; stroke-width: 1.0;"/><text fill="#000000" font-family="sans-serif" font-size="11" lengthAdjust="spacingAndGlyphs" textLength="135" x="26" y="162.2104">value1 : int «get» «set»</text><line style="stroke: #A80036; stroke-width: 1.5;" x1="7" x2="166" y1="168.8047" y2="168.8047"/><!--MD5=[53dcf64242be60c66f8dc78eb63950fa]
class Type2--><rect fill="#FEFECE" filter="url(#f1lexi3f1ngn0)" height="60.8047" id="Type2" style="stroke: #A80036; stroke-width: 1.5;" width="183" x="202" y="116"/><ellipse cx="270.75" cy="132" fill="#ADD1B2" rx="11" ry="11" style="stroke: #A80036; stroke-width: 1.0;"/><path d="M273.7188,137.6406 Q273.1406,137.9375 272.5,138.0781 Q271.8594,138.2344 271.1563,138.2344 Q268.6563,138.2344 267.3281,136.5938 Q266.0156,134.9375 266.0156,131.8125 Q266.0156,128.6875 267.3281,127.0313 Q268.6563,125.375 271.1563,125.375 Q271.8594,125.375 272.5,125.5313 Q273.1563,125.6875 273.7188,125.9844 L273.7188,128.7031 Q273.0938,128.125 272.5,127.8594 Q271.9063,127.5781 271.2813,127.5781 Q269.9375,127.5781 269.25,128.6563 Q268.5625,129.7188 268.5625,131.8125 Q268.5625,133.9063 269.25,134.9844 Q269.9375,136.0469 271.2813,136.0469 Q271.9063,136.0469 272.5,135.7813 Q273.0938,135.5 273.7188,134.9219 L273.7188,137.6406 Z "/><text fill="#000000" font-family="sans-serif" font-size="12" lengthAdjust="spacingAndGlyphs" textLength="37" x="291.25" y="136.1543">Type2</text><line style="stroke: #A80036; stroke-width: 1.5;" x1="203" x2="384" y1="148" y2="148"/><ellipse cx="213" cy="159" fill="none" rx="3" ry="3" style="stroke: #038048; stroke-width: 1.0;"/><text fill="#000000" font-family="sans-serif" font-size="11" lengthAdjust="spacingAndGlyphs" textLength="157" x="222" y="162.2104">string1 : string «get» «set»</text><line style="stroke: #A80036; stroke-width: 1.5;" x1="203" x2="384" y1="168.8047" y2="168.8047"/><!--MD5=[e86cb3152b373893f72577900da131c9]
class IList`1--><rect fill="#FEFECE" filter="url(#f1lexi3f1ngn0)" height="48" id="IList`1" style="stroke: #A80036; stroke-width: 1.5;" width="81" x="261" y="8"/><ellipse cx="276" cy="24" fill="#ADD1B2" rx="11" ry="11" style="stroke: #A80036; stroke-width: 1.0;"/><path d="M278.9688,29.6406 Q278.3906,29.9375 277.75,30.0781 Q277.1094,30.2344 276.4063,30.2344 Q273.9063,30.2344 272.5781,28.5938 Q271.2656,26.9375 271.2656,23.8125 Q271.2656,20.6875 272.5781,19.0313 Q273.9063,17.375 276.4063,17.375 Q277.1094,17.375 277.75,17.5313 Q278.4063,17.6875 278.9688,17.9844 L278.9688,20.7031 Q278.3438,20.125 277.75,19.8594 Q277.1563,19.5781 276.5313,19.5781 Q275.1875,19.5781 274.5,20.6563 Q273.8125,21.7188 273.8125,23.8125 Q273.8125,25.9063 274.5,26.9844 Q275.1875,28.0469 276.5313,28.0469 Q277.1563,28.0469 277.75,27.7813 Q278.3438,27.5 278.9688,26.9219 L278.9688,29.6406 Z "/><text fill="#000000" font-family="sans-serif" font-size="12" lengthAdjust="spacingAndGlyphs" textLength="38" x="290" y="28.1543">IList`1</text><rect fill="#FFFFFF" height="15.9688" style="stroke: #000000; stroke-width: 1.0; stroke-dasharray: 2.0,2.0;" width="9" x="336" y="5"/><text fill="#000000" font-family="sans-serif" font-size="12" font-style="italic" lengthAdjust="spacingAndGlyphs" textLength="7" x="337" y="17.1387">T</text><line style="stroke: #A80036; stroke-width: 1.5;" x1="262" x2="341" y1="40" y2="40"/><line style="stroke: #A80036; stroke-width: 1.5;" x1="262" x2="341" y1="48" y2="48"/><!--MD5=[654b698ff3f10acf0305479b509fdd4b]
class ExternalType--><rect fill="#FEFECE" filter="url(#f1lexi3f1ngn0)" height="48" id="ExternalType" style="stroke: #A80036; stroke-width: 1.5;" width="112" x="237.5" y="237"/><ellipse cx="252.5" cy="253" fill="#ADD1B2" rx="11" ry="11" style="stroke: #A80036; stroke-width: 1.0;"/><path d="M255.4688,258.6406 Q254.8906,258.9375 254.25,259.0781 Q253.6094,259.2344 252.9063,259.2344 Q250.4063,259.2344 249.0781,257.5938 Q247.7656,255.9375 247.7656,252.8125 Q247.7656,249.6875 249.0781,248.0313 Q250.4063,246.375 252.9063,246.375 Q253.6094,246.375 254.25,246.5313 Q254.9063,246.6875 255.4688,246.9844 L255.4688,249.7031 Q254.8438,249.125 254.25,248.8594 Q253.6563,248.5781 253.0313,248.5781 Q251.6875,248.5781 251,249.6563 Q250.3125,250.7188 250.3125,252.8125 Q250.3125,254.9063 251,255.9844 Q251.6875,257.0469 253.0313,257.0469 Q253.6563,257.0469 254.25,256.7813 Q254.8438,256.5 255.4688,255.9219 L255.4688,258.6406 Z "/><text fill="#000000" font-family="sans-serif" font-size="12" lengthAdjust="spacingAndGlyphs" textLength="80" x="266.5" y="257.1543">ExternalType</text><line style="stroke: #A80036; stroke-width: 1.5;" x1="238.5" x2="348.5" y1="269" y2="269"/><line style="stroke: #A80036; stroke-width: 1.5;" x1="238.5" x2="348.5" y1="277" y2="277"/><!--MD5=[6afba4bfb334a7b5cde3e799fc122c19]
link ClassA to IList`1--><path d="M238.25,32 C238.25,32 244.9,32 247.73,32 " fill="none" id="ClassA-IList`1" style="stroke: #A80036; stroke-width: 1.0;"/><polygon fill="#A80036" points="260.94,32,251.94,28,255.94,32,251.94,36,260.94,32" style="stroke: #A80036; stroke-width: 1.0;"/><line style="stroke: #A80036; stroke-width: 1.0;" x1="255.94" x2="247.94" y1="32" y2="32"/><polygon fill="#FFFFFF" points="226.25,32,232.25,36,238.25,32,232.25,28,226.25,32" style="stroke: #A80036; stroke-width: 1.0;"/><text fill="#000000" font-family="sans-serif" font-size="13" lengthAdjust="spacingAndGlyphs" textLength="103" x="234.4776" y="-3.0544">Strings&lt;string&gt;</text><!--MD5=[46034ea9a6648fa779258dedc468adcb]
link ClassA to Type1--><path d="M168.41,56.04 C153.74,72.05 133.95,93.67 117.5,111.64 " fill="none" id="ClassA-&gt;Type1" style="stroke: #A80036; stroke-width: 1.0;"/><polygon fill="#A80036" points="113.83,115.65,122.856,111.709,117.2047,111.9607,116.9531,106.3094,113.83,115.65" style="stroke: #A80036; stroke-width: 1.0;"/><text fill="#000000" font-family="sans-serif" font-size="13" lengthAdjust="spacingAndGlyphs" textLength="37" x="78.6512" y="104.841">Prop1</text><!--MD5=[b1e3d81ecce20dfeb80f31494af29ef1]
link ClassA to Type2--><path d="M210.8,56.04 C225.6,72.05 245.58,93.67 262.2,111.64 " fill="none" id="ClassA-&gt;Type2" style="stroke: #A80036; stroke-width: 1.0;"/><polygon fill="#A80036" points="265.91,115.65,262.7296,106.3288,262.5127,111.9815,256.86,111.7645,265.91,115.65" style="stroke: #A80036; stroke-width: 1.0;"/><text fill="#000000" font-family="sans-serif" font-size="13" lengthAdjust="spacingAndGlyphs" textLength="34" x="222.7133" y="104.841">field1</text><!--MD5=[706da74ec5aa8616b22b69563c55ddc2]
link Type2 to ExternalType--><path d="M293.5,177.06 C293.5,193.93 293.5,214.98 293.5,231.65 " fill="none" id="Type2-&gt;ExternalType" style="stroke: #A80036; stroke-width: 1.0;"/><polygon fill="#A80036" points="293.5,236.67,297.5,227.67,293.5,231.67,289.5,227.67,293.5,236.67" style="stroke: #A80036; stroke-width: 1.0;"/><text fill="#000000" font-family="sans-serif" font-size="13" lengthAdjust="spacingAndGlyphs" textLength="37" x="251.9906" y="225.9945">Prop2</text><!--MD5=[ea42be78660a9f3a0be61597ab11d866]
@startuml
class ClassA {
}
class Type1 {
    + value1 : int <<get>> <<set>>
}
class Type2 {
    + string1 : string <<get>> <<set>>
}
class "IList`1"<T> {
}
ClassA o-> "Strings<string>" "IList`1"
ClassA - -> "Prop1" Type1
ClassA - -> "field1" Type2
Type2 - -> "Prop2" ExternalType
@enduml

PlantUML version 1.2020.02(Sun Mar 01 10:22:07 UTC 2020)
(GPL source distribution)
Java Runtime: OpenJDK Runtime Environment
JVM: OpenJDK 64-Bit Server VM
Java Version: 21.0.10+7-Ubuntu-124.04
Operating System: Linux
Default Encoding: UTF-8
Language: en
Country: US
--></g></svg>